<svg xmlns="http://www.w3.org/2000/svg" width="205px" height="95px" viewBox="0 0 204 95"><path d="M130.027.156c-3.097.567-7.453 2.516-10.28 4.61-2.876 2.12-6.075 5.351-8.24 8.332l-1.081 1.453V1.734L108.805.156l-5.461 1.899c-5.313 1.824-5.461 1.898-5.461 2.562 0 .594.125.668 1.058.813 1.575.25 2.903 1.11 3.614 2.367l.617 1.11V32.82c0 25.043-.024 25.907-1.133 31.504-2.703 13.926-9.96 23.836-19.156 26.203-2.067.52-5.559.52-7.574 0-7.993-2.12-13.797-11.98-15.692-26.648-.566-4.313-.566-14 0-18.684 1.254-10.773 4.18-21.347 8.852-32.097 1.55-3.524 3.715-7.692 4.992-9.614.445-.668.812-1.355.812-1.48 0-.149-.367-.613-.785-1.035l-.812-.79-6.32 2.098c-6.223 2.043-6.344 2.094-6.344 2.758.023.469.246.817.808 1.16.446.297.813.766.864 1.086.12.864-1.036 4.34-2.512 7.617-.734 1.579-1.844 4.239-2.508 5.891-.637 1.676-1.254 3.031-1.352 3.031-.074 0-.343-.515-.59-1.183C52.462 16.625 47.642 9.747 43.04 6c-2.434-1.973-6.516-4.094-9.465-4.883C31.016.402 25.727.355 22.75.992c-5.383 1.184-10.352 3.602-15.367 7.52C5.168 10.238.52 14.727.05 15.586c-.246.469.222.937 4.797 5.18 2.777 2.562 5.187 4.683 5.363 4.73.637.149.98-.715.91-2.39-.2-4.313 1.742-8.454 5.875-12.57 4.012-3.97 9.52-6.434 14.363-6.434 2.606 0 4.106.468 6.344 1.972C42.797 9.473 46.88 16.5 49.164 25.77c1.55 6.187 2.066 11.043 2.066 18.757 0 6.239-.222 9.196-1.082 14.051-.566 3.281-.687 3.75-.96 3.649-.098-.047-2.829-2.86-6.024-6.235a2816.763 2816.763 0 0 0-8.09-8.504c-1.23-1.285-4.23-4.465-6.664-7.027-2.437-2.59-4.996-5.273-5.683-6.016l-1.278-1.355-2.09 1.012c-8.656 4.164-14.78 12.175-16.75 21.89-1.648 8.184-.859 16.492 2.215 23.836 4.746 11.266 14.09 16.59 25.574 14.621 10.133-1.75 18.2-8.258 23.168-18.664.641-1.328 1.207-2.39 1.305-2.414.074 0 .32.59.59 1.281 3.223 9.121 9.543 16.442 16.402 19.032 4.625 1.75 10.75 1.824 15.52.171C95.547 91.047 102.777 83.23 106.738 73c.32-.813.637-1.55.739-1.676.074-.097.418.469.71 1.235.813 2.043 3.051 6.234 4.254 8.035 3.274 4.883 7.38 8.824 11.88 11.437 2.609 1.504 2.656 1.504 3.445.2.367-.641.613-1.184.562-1.211-1.031-.641-3.27-2.586-4.672-4.04-9.515-9.984-14.043-24.726-13.035-42.425.371-6.164.813-9.91 1.774-14.25 1.94-8.899 5.335-15.875 10.058-20.535 7.059-7 15.715-8.086 21.027-2.637 3.247 3.304 5.387 9.465 5.73 16.515.145 3.082.27 3.329 1.376 3.032.394-.098.836-.739 1.625-2.29 2.164-4.39 5.387-9.05 8.656-12.5 5.113-5.425 10.082-8.062 15.371-8.136 2.434-.024 2.508 0 4.551 1.012 3.86 1.921 7.082 5.62 9.813 11.289 2.554 5.3 4.007 10.8 4.941 18.488.441 3.625.441 15.434.023 18.86-.343 2.663-1.425 8.011-1.746 8.577-.195.348-.32.247-13.672-14.246-7.746-8.406-9.617-10.406-12.566-13.535l-1.5-1.578-1.945.914c-7.23 3.45-12.836 9.711-15.543 17.426-1.574 4.465-1.895 6.656-1.895 12.918 0 4.957.074 5.992.543 8.16 2.285 10.356 7.625 17.797 14.781 20.707 2.95 1.184 4.375 1.43 8.286 1.457 4.035 0 5.879-.273 9.347-1.406 10.625-3.453 18.715-13.61 22.38-28.004 2.433-9.664 2.655-21.793.566-31.973-3-14.77-10.676-26.28-20.489-30.84C178.895.477 176.95.082 172.895.082c-6.25 0-11.586 1.7-17.66 5.645l-2.016 1.332-1.524-1.012c-3.617-2.34-9.25-4.656-13.379-5.52-2.312-.496-6.64-.691-8.289-.37Zm53.586 56.426 8.66 9.27-.738 2.097c-1.082 3.13-3.64 8.281-5.512 11.14-3.367 5.102-8.335 9.27-12.761 10.7-2.387.79-5.852 1.035-7.77.59-4.699-1.082-8.906-4.953-11.07-10.156-1.45-3.524-1.793-5.52-1.82-10.426 0-4.61.199-6.262 1.23-9.86 1.356-4.808 3.738-9.074 6.984-12.55 1.403-1.477 4.848-4.117 6.766-5.125l1.746-.914 2.828 2.984c1.547 1.652 6.711 7.148 11.457 12.25ZM25.09 42.382c.195.173 1.523 1.532 2.95 3.036 1.425 1.477 3.96 4.14 5.655 5.89 9.79 10.204 13.602 14.2 14.02 14.743.465.59.465.613-.028 2.168-3.269 10.133-10.132 18.71-17.187 21.52-9.445 3.75-17.46-.15-21.273-10.329-1.797-4.734-1.872-12.398-.223-18.562 2.043-7.594 6.543-13.633 13.207-17.7 1.894-1.132 2.285-1.257 2.879-.765Zm0 0" style="stroke:none;fill-rule:nonzero;fill:#000;fill-opacity:1"/></svg>